<svg width="28" height="40" viewBox="0 0 28 40" fill="none" xmlns="http://www.w3.org/2000/svg">
<path d="M13.9994 0C6.6475 0 0.666016 5.98149 0.666016 13.3334C0.666016 15.5404 1.21781 17.7287 2.2668 19.6696L13.2702 39.5703C13.4167 39.8356 13.6959 40 13.9994 40C14.3029 40 14.582 39.8356 14.7285 39.5703L25.736 19.663C26.7809 17.7287 27.3327 15.5403 27.3327 13.3333C27.3327 5.98148 21.3512 0 13.9994 0ZM13.9994 20C10.3234 20 7.33274 17.0093 7.33274 13.3334C7.33274 9.65742 10.3234 6.66672 13.9994 6.66672C17.6753 6.66672 20.666 9.65742 20.666 13.3334C20.666 17.0093 17.6753 20 13.9994 20Z" fill="white"/>
</svg>
