<svg width="40" height="44" viewBox="0 0 40 44" fill="none" xmlns="http://www.w3.org/2000/svg">
<path d="M38.9448 37.2049L31.8046 29.5728C31.7686 29.5342 31.7262 29.5059 31.6886 29.4785C31.047 30.5354 30.2798 31.54 29.4142 32.4674C28.5493 33.3949 27.6101 34.2169 26.6133 34.906C26.6485 34.9455 26.6749 34.9918 26.7109 35.0295L33.8367 42.6788C35.2471 44.1874 37.5376 44.1856 38.9432 42.6788C40.3504 41.1702 40.3512 38.7153 38.9448 37.2049Z" fill="white"/>
<path d="M28.3974 6.16216C21.9108 -0.786109 11.3586 -0.786109 4.87122 6.16387C-1.62254 13.1121 -1.62334 24.4269 4.86642 31.3777C11.3562 38.3251 21.9108 38.3251 28.3974 31.3768C34.884 24.4269 34.8832 13.1113 28.3974 6.16216ZM7.9241 28.105C3.12158 22.9594 3.12318 14.5822 7.9257 9.44171C12.7282 4.29694 20.542 4.29694 25.3429 9.43914C30.1422 14.5822 30.1406 22.9499 25.3429 28.1033C20.5412 33.2326 12.7282 33.2515 7.9241 28.105Z" fill="white"/>
<path d="M24.822 22.0431L21.7844 18.827H21.0059C20.9563 18.209 20.8699 17.6056 20.7107 17.0544L22.794 14.0209C23.022 13.6875 22.9556 13.2178 22.6444 12.9726C22.3316 12.7275 21.894 12.7986 21.6652 13.1321L20.0451 15.4918C19.5667 14.6347 18.9523 13.9524 18.2347 13.5426C18.3259 13.3404 18.3795 13.1183 18.3795 12.8843C18.3795 11.962 17.5963 11.2129 16.629 11.2129C15.661 11.2129 14.8778 11.962 14.8778 12.8843C14.8778 13.1183 14.9314 13.3404 15.0226 13.5426C14.3058 13.9524 13.6922 14.6347 13.213 15.4918L11.5937 13.1321C11.3641 12.7986 10.9265 12.7266 10.6137 12.9726C10.3025 13.2178 10.2353 13.6866 10.4641 14.0209L12.5473 17.0544C12.3881 17.6064 12.3009 18.2099 12.2521 18.827H11.4737L8.43683 22.0431C8.16163 22.3336 8.15843 22.8093 8.43123 23.1034C8.70244 23.3991 9.14565 23.4025 9.42006 23.1094L12.0481 20.3262H12.2513C12.3009 20.9442 12.3873 21.545 12.5465 22.0979L10.4633 25.1314C10.2345 25.4665 10.3009 25.9354 10.6129 26.1814C10.9257 26.4248 11.3633 26.3554 11.5929 26.0211L13.2122 23.6614C14.025 25.1177 15.2458 26.0674 16.629 26.0674C18.0123 26.0674 19.2323 25.1185 20.0451 23.6614L21.6652 26.0211C21.802 26.2208 22.014 26.3263 22.2292 26.3263C22.374 26.3263 22.518 26.2783 22.6444 26.1805C22.9564 25.9345 23.022 25.4657 22.794 25.1305L20.7107 22.0971C20.8699 21.545 20.9579 20.9442 21.0059 20.3253H21.2092L23.8372 23.1085C23.974 23.2542 24.1524 23.3262 24.3292 23.3262C24.51 23.3262 24.6908 23.2508 24.8276 23.1025C25.0997 22.8085 25.0972 22.3336 24.822 22.0431Z" fill="white"/>
</svg>
