<svg width="250" height="249" viewBox="0 0 250 249" fill="none" xmlns="http://www.w3.org/2000/svg">
<path d="M38.3895 145.529C36.1997 131.607 40.953 116.742 46.0807 101.307C51.1237 85.9389 56.5413 70.0009 67.2018 57.7538C77.711 45.4888 93.3297 36.7453 109.415 35.7328C125.433 34.6355 141.833 41.3359 158.082 48.0183C174.246 54.7674 190.326 61.5833 195.977 74.1495C201.779 86.7335 197.17 104.916 197.372 121.366C197.592 137.665 202.64 152.078 200.124 164.906C197.674 177.818 187.642 189.295 175.826 198.335C164.095 207.308 150.495 213.911 137.144 213.866C123.794 213.821 110.609 207.194 97.5036 201.191C84.4649 195.272 71.4879 190.128 60.5755 181.161C49.5117 172.176 40.5125 159.366 38.3895 145.529Z" fill="#6D88D5" fill-opacity="0.1"/>
</svg>
